<svg width="128" height="128" viewBox="0 0 128 128" xmlns="http://www.w3.org/2000/svg">
  <defs>
    <linearGradient id="bg" x1="0%" y1="0%" x2="100%" y2="100%">
      <stop offset="0%" style="stop-color:#1a1a1a;stop-opacity:1" />
      <stop offset="100%" style="stop-color:#2d2d2d;stop-opacity:1" />
    </linearGradient>
    <linearGradient id="waveGrad" x1="0%" y1="100%" x2="0%" y2="0%">
      <stop offset="0%" style="stop-color:#00ff88;stop-opacity:1" />
      <stop offset="50%" style="stop-color:#00d4ff;stop-opacity:1" />
      <stop offset="100%" style="stop-color:#ff6b6b;stop-opacity:1" />
    </linearGradient>
  </defs>
  
  <!-- Background -->
  <rect width="128" height="128" fill="url(#bg)" rx="20"/>
  
  <!-- Center line -->
  <line x1="16" y1="64" x2="112" y2="64" stroke="#333" stroke-width="1"/>
  
  <!-- Waveform bars - like frequency analyzer -->
  <g fill="url(#waveGrad)">
    <rect x="20" y="58" width="4" height="12" rx="2"/>
    <rect x="28" y="50" width="4" height="28" rx="2"/>
    <rect x="36" y="35" width="4" height="58" rx="2"/>
    <rect x="44" y="25" width="4" height="78" rx="2"/>
    <rect x="52" y="15" width="4" height="98" rx="2"/>
    <rect x="60" y="10" width="4" height="108" rx="2"/>
    <rect x="68" y="15" width="4" height="98" rx="2"/>
    <rect x="76" y="25" width="4" height="78" rx="2"/>
    <rect x="84" y="35" width="4" height="58" rx="2"/>
    <rect x="92" y="45" width="4" height="38" rx="2"/>
    <rect x="100" y="55" width="4" height="18" rx="2"/>
  </g>
  
  <!-- Glow effect -->
  <g fill="url(#waveGrad)" opacity="0.3">
    <rect x="18" y="56" width="8" height="16" rx="4"/>
    <rect x="26" y="48" width="8" height="32" rx="4"/>
    <rect x="34" y="33" width="8" height="62" rx="4"/>
    <rect x="42" y="23" width="8" height="82" rx="4"/>
    <rect x="50" y="13" width="8" height="102" rx="4"/>
    <rect x="58" y="8" width="8" height="112" rx="4"/>
    <rect x="66" y="13" width="8" height="102" rx="4"/>
    <rect x="74" y="23" width="8" height="82" rx="4"/>
    <rect x="82" y="33" width="8" height="62" rx="4"/>
    <rect x="90" y="43" width="8" height="42" rx="4"/>
    <rect x="98" y="53" width="8" height="22" rx="4"/>
  </g>
</svg>